<?xml version="1.0" encoding="UTF-8" standalone="no"?>
<svg width="46px" height="46px" viewBox="0 0 46 46" version="1.1" xmlns="http://www.w3.org/2000/svg" xmlns:xlink="http://www.w3.org/1999/xlink">
    <!-- Generator: Sketch 3.6.1 (26313) - http://www.bohemiancoding.com/sketch -->
    <title>Rectangle 4 Copy 3</title>
    <desc>Created with Sketch.</desc>
    <defs></defs>
    <g id="Page-1" stroke="none" stroke-width="1" fill="none" fill-rule="evenodd">
        <g id="Artboard-1" transform="translate(-283.000000, -191.000000)" fill="#9B9B9B">
            <path d="M283,198.999448 C283,194.581475 286.590383,191 290.999448,191 L321.000552,191 C325.418525,191 329,194.590383 329,198.999448 L329,229.000552 C329,233.418525 325.409617,237 321.000552,237 L290.999448,237 C286.581475,237 283,233.409617 283,229.000552 L283,198.999448 Z M306,218.6 C308.54051,218.6 310.6,216.54051 310.6,214 C310.6,211.45949 308.54051,209.4 306,209.4 C303.45949,209.4 301.4,211.45949 301.4,214 C301.4,216.54051 303.45949,218.6 306,218.6 Z M317.5,207.1 C320.04051,207.1 322.1,205.04051 322.1,202.5 C322.1,199.95949 320.04051,197.9 317.5,197.9 C314.95949,197.9 312.9,199.95949 312.9,202.5 C312.9,205.04051 314.95949,207.1 317.5,207.1 Z M294.5,230.1 C297.04051,230.1 299.1,228.04051 299.1,225.5 C299.1,222.95949 297.04051,220.9 294.5,220.9 C291.95949,220.9 289.9,222.95949 289.9,225.5 C289.9,228.04051 291.95949,230.1 294.5,230.1 Z" id="Rectangle-4-Copy-3"></path>
        </g>
    </g>
</svg>