<?xml version="1.0" encoding="UTF-8" standalone="no"?>
<svg width="46px" height="46px" viewBox="0 0 46 46" version="1.1" xmlns="http://www.w3.org/2000/svg" xmlns:xlink="http://www.w3.org/1999/xlink">
    <!-- Generator: Sketch 3.6.1 (26313) - http://www.bohemiancoding.com/sketch -->
    <title>Rectangle 4</title>
    <desc>Created with Sketch.</desc>
    <defs></defs>
    <g id="Page-1" stroke="none" stroke-width="1" fill="none" fill-rule="evenodd">
        <g id="Artboard-1" transform="translate(-261.000000, -285.000000)" stroke="#FFFFFF">
            <path d="M261,292.999448 C261,288.581475 264.590383,285 268.999448,285 L299.000552,285 C303.418525,285 307,288.590383 307,292.999448 L307,323.000552 C307,327.418525 303.409617,331 299.000552,331 L268.999448,331 C264.581475,331 261,327.409617 261,323.000552 L261,292.999448 Z M295.5,301.1 C298.04051,301.1 300.1,299.04051 300.1,296.5 C300.1,293.95949 298.04051,291.9 295.5,291.9 C292.95949,291.9 290.9,293.95949 290.9,296.5 C290.9,299.04051 292.95949,301.1 295.5,301.1 Z M295.5,324.1 C298.04051,324.1 300.1,322.04051 300.1,319.5 C300.1,316.95949 298.04051,314.9 295.5,314.9 C292.95949,314.9 290.9,316.95949 290.9,319.5 C290.9,322.04051 292.95949,324.1 295.5,324.1 Z M272.5,324.1 C275.04051,324.1 277.1,322.04051 277.1,319.5 C277.1,316.95949 275.04051,314.9 272.5,314.9 C269.95949,314.9 267.9,316.95949 267.9,319.5 C267.9,322.04051 269.95949,324.1 272.5,324.1 Z M272.5,301.1 C275.04051,301.1 277.1,299.04051 277.1,296.5 C277.1,293.95949 275.04051,291.9 272.5,291.9 C269.95949,291.9 267.9,293.95949 267.9,296.5 C267.9,299.04051 269.95949,301.1 272.5,301.1 Z" id="Rectangle-4"></path>
        </g>
    </g>
</svg>