<?xml version="1.0" encoding="UTF-8" standalone="no"?>
<svg width="46px" height="46px" viewBox="0 0 46 46" version="1.1" xmlns="http://www.w3.org/2000/svg" xmlns:xlink="http://www.w3.org/1999/xlink">
    <!-- Generator: Sketch 3.6.1 (26313) - http://www.bohemiancoding.com/sketch -->
    <title>Rectangle 4 Copy 2</title>
    <desc>Created with Sketch.</desc>
    <defs></defs>
    <g id="Page-1" stroke="none" stroke-width="1" fill="none" fill-rule="evenodd">
        <g id="Artboard-1" transform="translate(-223.000000, -191.000000)" fill="#9B9B9B">
            <path d="M223,198.999448 C223,194.581475 226.590383,191 230.999448,191 L261.000552,191 C265.418525,191 269,194.590383 269,198.999448 L269,229.000552 C269,233.418525 265.409617,237 261.000552,237 L230.999448,237 C226.581475,237 223,233.409617 223,229.000552 L223,198.999448 Z M234.5,218.6 C237.04051,218.6 239.1,216.54051 239.1,214 C239.1,211.45949 237.04051,209.4 234.5,209.4 C231.95949,209.4 229.9,211.45949 229.9,214 C229.9,216.54051 231.95949,218.6 234.5,218.6 Z M257.5,218.6 C260.04051,218.6 262.1,216.54051 262.1,214 C262.1,211.45949 260.04051,209.4 257.5,209.4 C254.95949,209.4 252.9,211.45949 252.9,214 C252.9,216.54051 254.95949,218.6 257.5,218.6 Z M257.5,207.1 C260.04051,207.1 262.1,205.04051 262.1,202.5 C262.1,199.95949 260.04051,197.9 257.5,197.9 C254.95949,197.9 252.9,199.95949 252.9,202.5 C252.9,205.04051 254.95949,207.1 257.5,207.1 Z M257.5,230.1 C260.04051,230.1 262.1,228.04051 262.1,225.5 C262.1,222.95949 260.04051,220.9 257.5,220.9 C254.95949,220.9 252.9,222.95949 252.9,225.5 C252.9,228.04051 254.95949,230.1 257.5,230.1 Z M234.5,230.1 C237.04051,230.1 239.1,228.04051 239.1,225.5 C239.1,222.95949 237.04051,220.9 234.5,220.9 C231.95949,220.9 229.9,222.95949 229.9,225.5 C229.9,228.04051 231.95949,230.1 234.5,230.1 Z M234.5,207.1 C237.04051,207.1 239.1,205.04051 239.1,202.5 C239.1,199.95949 237.04051,197.9 234.5,197.9 C231.95949,197.9 229.9,199.95949 229.9,202.5 C229.9,205.04051 231.95949,207.1 234.5,207.1 Z" id="Rectangle-4-Copy-2"></path>
        </g>
    </g>
</svg>