<?xml version="1.0" encoding="UTF-8" standalone="no"?>
<svg width="46px" height="46px" viewBox="0 0 46 46" version="1.1" xmlns="http://www.w3.org/2000/svg" xmlns:xlink="http://www.w3.org/1999/xlink">
    <!-- Generator: Sketch 3.6.1 (26313) - http://www.bohemiancoding.com/sketch -->
    <title>Rectangle 4 Copy 3</title>
    <desc>Created with Sketch.</desc>
    <defs></defs>
    <g id="Page-1" stroke="none" stroke-width="1" fill="none" fill-rule="evenodd">
        <g id="Artboard-1" transform="translate(-46.000000, -191.000000)" fill="#9B9B9B">
            <path d="M46,198.999448 C46,194.581475 49.5903827,191 53.9994481,191 L84.0005519,191 C88.4185251,191 92,194.590383 92,198.999448 L92,229.000552 C92,233.418525 88.4096173,237 84.0005519,237 L53.9994481,237 C49.5814749,237 46,233.409617 46,229.000552 L46,198.999448 Z M69,218.6 C71.5405098,218.6 73.6,216.54051 73.6,214 C73.6,211.45949 71.5405098,209.4 69,209.4 C66.4594902,209.4 64.4,211.45949 64.4,214 C64.4,216.54051 66.4594902,218.6 69,218.6 Z M80.5,207.1 C83.0405098,207.1 85.1,205.04051 85.1,202.5 C85.1,199.95949 83.0405098,197.9 80.5,197.9 C77.9594902,197.9 75.9,199.95949 75.9,202.5 C75.9,205.04051 77.9594902,207.1 80.5,207.1 Z M80.5,230.1 C83.0405098,230.1 85.1,228.04051 85.1,225.5 C85.1,222.95949 83.0405098,220.9 80.5,220.9 C77.9594902,220.9 75.9,222.95949 75.9,225.5 C75.9,228.04051 77.9594902,230.1 80.5,230.1 Z M57.5,230.1 C60.0405098,230.1 62.1,228.04051 62.1,225.5 C62.1,222.95949 60.0405098,220.9 57.5,220.9 C54.9594902,220.9 52.9,222.95949 52.9,225.5 C52.9,228.04051 54.9594902,230.1 57.5,230.1 Z M57.5,207.1 C60.0405098,207.1 62.1,205.04051 62.1,202.5 C62.1,199.95949 60.0405098,197.9 57.5,197.9 C54.9594902,197.9 52.9,199.95949 52.9,202.5 C52.9,205.04051 54.9594902,207.1 57.5,207.1 Z" id="Rectangle-4-Copy-3"></path>
        </g>
    </g>
</svg>