<?xml version="1.0" encoding="UTF-8" standalone="no"?>
<svg width="46px" height="46px" viewBox="0 0 46 46" version="1.1" xmlns="http://www.w3.org/2000/svg" xmlns:xlink="http://www.w3.org/1999/xlink">
    <!-- Generator: Sketch 3.6.1 (26313) - http://www.bohemiancoding.com/sketch -->
    <title>Rectangle 257 Copy 2</title>
    <desc>Created with Sketch.</desc>
    <defs></defs>
    <g id="Page-1" stroke="none" stroke-width="1" fill="none" fill-rule="evenodd">
        <g id="Artboard-1" transform="translate(-105.000000, -191.000000)" fill="#9B9B9B">
            <path d="M105,198.999448 C105,194.581475 108.590383,191 112.999448,191 L143.000552,191 C147.418525,191 151,194.590383 151,198.999448 L151,229.000552 C151,233.418525 147.409617,237 143.000552,237 L112.999448,237 C108.581475,237 105,233.409617 105,229.000552 L105,198.999448 Z M123.686519,210.071389 C123.686519,210.071389 123.368321,213.123345 124.249194,214.130053 C125.130066,215.136223 125.346896,216.183394 126.380634,216.183394 C127.41383,216.183394 128.240495,216.337691 128.240495,216.337691 C128.240495,216.337691 129.06716,216.183394 130.100898,216.183394 C131.134094,216.183394 131.350924,215.136762 132.231797,214.130053 C133.112669,213.123345 132.794471,210.071389 132.794471,210.071389 C132.411224,210.330888 131.296175,210.330888 131.296175,212.376676 C131.296175,214.421923 128.240495,214.389553 128.240495,214.389553 C128.240495,214.389553 125.184816,214.421384 125.184816,212.376676 C125.184816,210.331428 124.070309,210.331428 123.686519,210.071389 Z M123.303272,209.552389 C124.445425,209.942448 125.011352,210.201948 125.184816,210.688577 C125.35828,211.175747 126.098213,211.598176 128.240495,211.598176 C130.382777,211.598176 131.122168,211.176286 131.296175,210.688577 C131.469639,210.201948 132.036107,209.941908 133.177718,209.552389 C134.319329,209.162869 134.906939,208.44857 134.906939,207.929031 C134.906939,207.409491 134.171343,207.029683 134.171343,207.029683 C134.850563,206.045633 135.24411,204.88139 135.24411,203.632446 C135.243568,200.105729 132.108204,197.246914 128.240495,197.246914 C124.372787,197.246914 121.237422,200.105729 121.237422,203.632446 C121.237422,204.880851 121.630969,206.045633 122.31019,207.029683 C122.310732,207.029683 121.574593,207.409491 121.574593,207.929031 C121.574593,208.44857 122.161661,209.162869 123.303272,209.552389 Z M130.597439,203.837996 C131.857223,203.837996 132.599324,205.201314 132.599324,205.363704 L132.599324,206.468062 C132.599324,206.857582 132.436159,207.019972 132.338586,207.247102 C132.24047,207.474231 131.555829,207.636621 130.597439,207.247102 C129.63905,206.857042 129.272065,205.720854 129.250924,205.461354 C129.229783,205.201314 129.336572,203.837996 130.597439,203.837996 Z M128.181951,206.619123 C128.943025,206.813882 129.214063,209.368419 129.214063,209.368419 C128.76685,208.87046 128.181951,208.91362 128.181951,208.91362 C128.181951,208.91362 127.597594,208.87046 127.150381,209.368419 C127.150381,209.368419 127.421419,206.813882 128.181951,206.619123 Z M123.882209,205.363704 C123.882209,205.201314 124.623768,203.837996 125.884093,203.837996 C127.143877,203.837996 127.251208,205.201314 127.230067,205.461354 C127.209468,205.720854 126.841941,206.857582 125.884093,207.247102 C124.925704,207.636621 124.241063,207.474231 124.142947,207.247102 C124.044831,207.019432 123.882209,206.857042 123.882209,206.468062 L123.882209,205.363704 Z M126.112307,212.498063 C126.177898,212.509932 126.240779,212.467312 126.253247,212.402572 L126.362204,211.584688 C126.374672,211.519409 126.331848,211.456827 126.266798,211.444418 L126.04509,211.402877 L125.823923,211.360796 C125.758332,211.348927 125.695451,211.391547 125.682983,211.456827 L125.535523,212.051888 L125.484584,212.257446 C125.472116,212.322186 125.51494,212.384768 125.580531,212.397177 L125.84669,212.44789 L126.112307,212.498063 Z M126.927588,211.601952 L126.703711,211.574977 C126.637578,211.566885 126.57795,211.613821 126.569819,211.679101 L126.424542,212.491589 C126.416411,212.556869 126.46303,212.616754 126.529163,212.624846 L126.798032,212.657756 L127.066902,212.690665 C127.133035,212.698758 127.192663,212.651821 127.200794,212.586542 L127.256086,211.763263 C127.264217,211.697444 127.217057,211.63756 127.151466,211.629467 L126.927588,211.601952 Z M128.06161,211.724959 L127.818218,211.707155 L127.574284,211.689891 C127.502188,211.684496 127.43985,211.738446 127.434971,211.8102 L127.320051,212.6966 C127.31463,212.768353 127.368838,212.830396 127.440934,212.835791 L127.733655,212.856831 L128.026917,212.877872 C128.098471,212.883267 128.16081,212.829317 128.166231,212.758103 L128.182493,211.86415 C128.187372,211.792396 128.133706,211.730354 128.06161,211.724959 Z M128.906706,211.689891 L128.663314,211.707155 L128.41938,211.724959 C128.347826,211.730354 128.294161,211.792396 128.299039,211.86415 L128.31476,212.758103 C128.32018,212.829317 128.382519,212.882727 128.454615,212.877872 L128.747336,212.856831 L129.040056,212.835791 C129.112153,212.830396 129.165818,212.768353 129.160939,212.6966 L129.046561,211.8102 C129.041683,211.737907 128.978802,211.684496 128.906706,211.689891 Z M139.753094,223.417021 C138.578416,223.287541 135.54442,222.443222 134.500925,222.086073 C133.984869,221.909656 132.641064,221.32106 131.413263,220.77077 C132.641606,220.219939 133.984869,219.631883 134.500925,219.455466 C135.544962,219.098317 138.578416,218.253998 139.753094,218.124518 C140.927229,217.994498 142.134431,218.059238 143.243517,217.182549 C144.352604,216.3064 143.308566,215.234951 142.982237,214.844892 C142.655366,214.455373 141.644395,214.487743 141.383657,213.513944 C141.122918,212.539605 139.915716,211.858215 139.132959,211.929429 C138.350202,212.001723 136.914244,214.650132 135.54442,215.73345 C134.522065,216.542162 130.0597,218.511879 128.182493,219.324368 C126.305828,218.511879 121.844005,216.542162 120.821109,215.73345 C119.451284,214.650132 118.015326,212.001723 117.232569,211.929429 C116.449812,211.857676 115.24261,212.539605 114.981872,213.513944 C114.720591,214.487743 113.709621,214.455373 113.383291,214.844892 C113.056962,215.234951 112.013467,216.3064 113.122553,217.182549 C114.232181,218.059238 115.438841,217.994498 116.612977,218.124518 C117.787654,218.253998 120.821651,219.098317 121.865146,219.455466 C122.381202,219.631883 123.725007,220.220479 124.952808,220.77077 C123.724465,221.32106 122.381202,221.909656 121.865146,222.086073 C120.821109,222.443222 117.787654,223.287541 116.612977,223.417021 C115.438841,223.547041 114.231639,223.482301 113.122553,224.35899 C112.013467,225.235679 113.057504,226.306588 113.383291,226.696647 C113.710163,227.086167 114.721134,227.053797 114.981872,228.027596 C115.24261,229.001934 116.449812,229.683324 117.232569,229.61211 C118.015326,229.539817 119.451284,226.891407 120.821109,225.808089 C121.844005,224.999377 126.305828,223.02966 128.182493,222.217171 C130.0597,223.02966 134.522065,224.999377 135.54442,225.808089 C136.914244,226.891407 138.350202,229.539817 139.132959,229.61211 C139.915716,229.683863 141.122918,229.001934 141.383657,228.027596 C141.644395,227.053797 142.655908,227.086167 142.982237,226.696647 C143.308566,226.306588 144.352604,225.235679 143.243517,224.35899 C142.133889,223.482301 140.927229,223.547041 139.753094,223.417021 Z M129.414089,212.690665 L129.682958,212.657756 L129.951285,212.624846 C130.017419,212.616754 130.064579,212.556869 130.056448,212.491589 L129.911172,211.679101 C129.903041,211.613821 129.84287,211.566885 129.776737,211.574977 L129.553402,211.601952 L129.329525,211.629467 C129.263392,211.63756 129.216231,211.697444 129.224904,211.762724 L129.279654,212.586002 C129.288327,212.651821 129.347955,212.698758 129.414089,212.690665 Z M130.634842,212.44789 L130.901002,212.397177 C130.966051,212.385308 131.008875,212.322186 130.996949,212.257446 L130.798549,211.456827 C130.786082,211.391547 130.722659,211.348927 130.65761,211.360796 L130.435901,211.402877 L130.214734,211.444418 C130.149685,211.456827 130.106861,211.519409 130.118787,211.584688 L130.227744,212.402572 C130.240212,212.467312 130.303634,212.509932 130.368683,212.498063 L130.634842,212.44789 Z M126.916205,213.481034 L126.955776,214.141923 C126.956318,214.195333 126.999685,214.237954 127.05335,214.237954 L127.233861,214.236875 L127.414914,214.235796 C127.46858,214.235796 127.511946,214.192636 127.511404,214.139225 L127.545012,213.478336 C127.54447,213.424926 127.501104,213.381766 127.447439,213.382305 L127.230067,213.383384 L127.012152,213.383924 C126.959029,213.384463 126.915663,213.427623 126.916205,213.481034 Z M127.88923,213.373134 L127.6724,213.38824 C127.619277,213.392556 127.579163,213.438413 127.5835,213.491824 L127.668064,214.148936 C127.671858,214.201807 127.717934,214.24173 127.771058,214.237414 L127.951569,214.225006 L128.13208,214.212058 C128.185204,214.207742 128.225317,214.161884 128.221523,214.109013 L128.209597,213.447045 C128.205802,213.394174 128.159184,213.354251 128.106603,213.358567 L127.88923,213.373134 Z M128.264889,214.107934 C128.260552,214.161345 128.300666,214.207202 128.354331,214.210979 L128.534842,214.223927 L128.715353,214.236335 C128.768477,214.240651 128.815095,214.200728 128.818348,214.147857 L128.902911,213.490745 C128.906706,213.437334 128.867134,213.391477 128.813469,213.387161 L128.597181,213.372055 L128.380351,213.356409 C128.326685,213.352093 128.280609,213.392016 128.276814,213.444887 L128.264889,214.107934 Z M128.991812,214.132211 C128.991812,214.185083 129.035178,214.228243 129.088843,214.227703 L129.269896,214.226624 L129.45095,214.226085 C129.504615,214.225545 129.547439,214.182385 129.546897,214.128974 L129.580506,213.467546 C129.579964,213.414136 129.536598,213.371515 129.482932,213.371515 L129.266102,213.372594 L129.04873,213.373673 C128.994522,213.374752 128.951698,213.417912 128.951698,213.470783 L128.991812,214.132211 Z" id="Rectangle-257-Copy-2"></path>
        </g>
    </g>
</svg>