<?xml version="1.0" encoding="UTF-8" standalone="no"?>
<svg width="46px" height="46px" viewBox="0 0 46 46" version="1.1" xmlns="http://www.w3.org/2000/svg" xmlns:xlink="http://www.w3.org/1999/xlink">
    <!-- Generator: Sketch 3.6.1 (26313) - http://www.bohemiancoding.com/sketch -->
    <title>Rectangle 4</title>
    <desc>Created with Sketch.</desc>
    <defs></defs>
    <g id="Page-1" stroke="none" stroke-width="1" fill="none" fill-rule="evenodd">
        <g id="Artboard-1" transform="translate(-146.000000, -285.000000)" stroke="#FFFFFF">
            <path d="M146,292.999448 C146,288.581475 149.590383,285 153.999448,285 L184.000552,285 C188.418525,285 192,288.590383 192,292.999448 L192,323.000552 C192,327.418525 188.409617,331 184.000552,331 L153.999448,331 C149.581475,331 146,327.409617 146,323.000552 L146,292.999448 Z M180.5,301.1 C183.04051,301.1 185.1,299.04051 185.1,296.5 C185.1,293.95949 183.04051,291.9 180.5,291.9 C177.95949,291.9 175.9,293.95949 175.9,296.5 C175.9,299.04051 177.95949,301.1 180.5,301.1 Z M157.5,324.1 C160.04051,324.1 162.1,322.04051 162.1,319.5 C162.1,316.95949 160.04051,314.9 157.5,314.9 C154.95949,314.9 152.9,316.95949 152.9,319.5 C152.9,322.04051 154.95949,324.1 157.5,324.1 Z" id="Rectangle-4"></path>
        </g>
    </g>
</svg>