<?xml version="1.0" encoding="UTF-8" standalone="no"?>
<svg width="46px" height="46px" viewBox="0 0 46 46" version="1.1" xmlns="http://www.w3.org/2000/svg" xmlns:xlink="http://www.w3.org/1999/xlink">
    <!-- Generator: Sketch 3.6.1 (26313) - http://www.bohemiancoding.com/sketch -->
    <title>Rectangle 4</title>
    <desc>Created with Sketch.</desc>
    <defs></defs>
    <g id="Page-1" stroke="none" stroke-width="1" fill="none" fill-rule="evenodd">
        <g id="Artboard-1" transform="translate(-204.000000, -285.000000)" stroke="#FFFFFF">
            <path d="M204,292.999448 C204,288.581475 207.590383,285 211.999448,285 L242.000552,285 C246.418525,285 250,288.590383 250,292.999448 L250,323.000552 C250,327.418525 246.409617,331 242.000552,331 L211.999448,331 C207.581475,331 204,327.409617 204,323.000552 L204,292.999448 Z M227,312.6 C229.54051,312.6 231.6,310.54051 231.6,308 C231.6,305.45949 229.54051,303.4 227,303.4 C224.45949,303.4 222.4,305.45949 222.4,308 C222.4,310.54051 224.45949,312.6 227,312.6 Z M238.5,301.1 C241.04051,301.1 243.1,299.04051 243.1,296.5 C243.1,293.95949 241.04051,291.9 238.5,291.9 C235.95949,291.9 233.9,293.95949 233.9,296.5 C233.9,299.04051 235.95949,301.1 238.5,301.1 Z M215.5,324.1 C218.04051,324.1 220.1,322.04051 220.1,319.5 C220.1,316.95949 218.04051,314.9 215.5,314.9 C212.95949,314.9 210.9,316.95949 210.9,319.5 C210.9,322.04051 212.95949,324.1 215.5,324.1 Z" id="Rectangle-4"></path>
        </g>
    </g>
</svg>