<?xml version="1.0" encoding="UTF-8" standalone="no"?>
<svg width="46px" height="46px" viewBox="0 0 46 46" version="1.1" xmlns="http://www.w3.org/2000/svg" xmlns:xlink="http://www.w3.org/1999/xlink">
    <!-- Generator: Sketch 3.6.1 (26313) - http://www.bohemiancoding.com/sketch -->
    <title>Rectangle 4</title>
    <desc>Created with Sketch.</desc>
    <defs></defs>
    <g id="Page-1" stroke="none" stroke-width="1" fill="none" fill-rule="evenodd">
        <g id="Artboard-1" transform="translate(-175.000000, -342.000000)" stroke="#FFFFFF">
            <path d="M175,349.999448 C175,345.581475 178.590383,342 182.999448,342 L213.000552,342 C217.418525,342 221,345.590383 221,349.999448 L221,380.000552 C221,384.418525 217.409617,388 213.000552,388 L182.999448,388 C178.581475,388 175,384.409617 175,380.000552 L175,349.999448 Z M198,369.6 C200.54051,369.6 202.6,367.54051 202.6,365 C202.6,362.45949 200.54051,360.4 198,360.4 C195.45949,360.4 193.4,362.45949 193.4,365 C193.4,367.54051 195.45949,369.6 198,369.6 Z M209.5,358.1 C212.04051,358.1 214.1,356.04051 214.1,353.5 C214.1,350.95949 212.04051,348.9 209.5,348.9 C206.95949,348.9 204.9,350.95949 204.9,353.5 C204.9,356.04051 206.95949,358.1 209.5,358.1 Z M209.5,381.1 C212.04051,381.1 214.1,379.04051 214.1,376.5 C214.1,373.95949 212.04051,371.9 209.5,371.9 C206.95949,371.9 204.9,373.95949 204.9,376.5 C204.9,379.04051 206.95949,381.1 209.5,381.1 Z M186.5,381.1 C189.04051,381.1 191.1,379.04051 191.1,376.5 C191.1,373.95949 189.04051,371.9 186.5,371.9 C183.95949,371.9 181.9,373.95949 181.9,376.5 C181.9,379.04051 183.95949,381.1 186.5,381.1 Z M186.5,358.1 C189.04051,358.1 191.1,356.04051 191.1,353.5 C191.1,350.95949 189.04051,348.9 186.5,348.9 C183.95949,348.9 181.9,350.95949 181.9,353.5 C181.9,356.04051 183.95949,358.1 186.5,358.1 Z" id="Rectangle-4"></path>
        </g>
    </g>
</svg>