<?xml version="1.0" encoding="UTF-8" standalone="no"?>
<svg width="46px" height="46px" viewBox="0 0 46 46" version="1.1" xmlns="http://www.w3.org/2000/svg" xmlns:xlink="http://www.w3.org/1999/xlink">
    <!-- Generator: Sketch 3.6.1 (26313) - http://www.bohemiancoding.com/sketch -->
    <title>Rectangle 4</title>
    <desc>Created with Sketch.</desc>
    <defs></defs>
    <g id="Page-1" stroke="none" stroke-width="1" fill="none" fill-rule="evenodd">
        <g id="Artboard-1" transform="translate(-203.000000, -285.000000)" fill="#9B9B9B">
            <path d="M203,292.999448 C203,288.581475 206.590383,285 210.999448,285 L241.000552,285 C245.418525,285 249,288.590383 249,292.999448 L249,323.000552 C249,327.418525 245.409617,331 241.000552,331 L210.999448,331 C206.581475,331 203,327.409617 203,323.000552 L203,292.999448 Z M237.5,301.1 C240.04051,301.1 242.1,299.04051 242.1,296.5 C242.1,293.95949 240.04051,291.9 237.5,291.9 C234.95949,291.9 232.9,293.95949 232.9,296.5 C232.9,299.04051 234.95949,301.1 237.5,301.1 Z M214.5,324.1 C217.04051,324.1 219.1,322.04051 219.1,319.5 C219.1,316.95949 217.04051,314.9 214.5,314.9 C211.95949,314.9 209.9,316.95949 209.9,319.5 C209.9,322.04051 211.95949,324.1 214.5,324.1 Z" id="Rectangle-4"></path>
        </g>
    </g>
</svg>