<?xml version="1.0" encoding="UTF-8" standalone="no"?>
<svg width="46px" height="46px" viewBox="0 0 46 46" version="1.1" xmlns="http://www.w3.org/2000/svg" xmlns:xlink="http://www.w3.org/1999/xlink">
    <!-- Generator: Sketch 3.6.1 (26313) - http://www.bohemiancoding.com/sketch -->
    <title>Rectangle 4</title>
    <desc>Created with Sketch.</desc>
    <defs></defs>
    <g id="Page-1" stroke="none" stroke-width="1" fill="none" fill-rule="evenodd">
        <g id="Artboard-1" transform="translate(-233.000000, -342.000000)" stroke="#FFFFFF">
            <path d="M233,349.999448 C233,345.581475 236.590383,342 240.999448,342 L271.000552,342 C275.418525,342 279,345.590383 279,349.999448 L279,380.000552 C279,384.418525 275.409617,388 271.000552,388 L240.999448,388 C236.581475,388 233,384.409617 233,380.000552 L233,349.999448 Z M244.5,369.6 C247.04051,369.6 249.1,367.54051 249.1,365 C249.1,362.45949 247.04051,360.4 244.5,360.4 C241.95949,360.4 239.9,362.45949 239.9,365 C239.9,367.54051 241.95949,369.6 244.5,369.6 Z M267.5,369.6 C270.04051,369.6 272.1,367.54051 272.1,365 C272.1,362.45949 270.04051,360.4 267.5,360.4 C264.95949,360.4 262.9,362.45949 262.9,365 C262.9,367.54051 264.95949,369.6 267.5,369.6 Z M267.5,358.1 C270.04051,358.1 272.1,356.04051 272.1,353.5 C272.1,350.95949 270.04051,348.9 267.5,348.9 C264.95949,348.9 262.9,350.95949 262.9,353.5 C262.9,356.04051 264.95949,358.1 267.5,358.1 Z M267.5,381.1 C270.04051,381.1 272.1,379.04051 272.1,376.5 C272.1,373.95949 270.04051,371.9 267.5,371.9 C264.95949,371.9 262.9,373.95949 262.9,376.5 C262.9,379.04051 264.95949,381.1 267.5,381.1 Z M244.5,381.1 C247.04051,381.1 249.1,379.04051 249.1,376.5 C249.1,373.95949 247.04051,371.9 244.5,371.9 C241.95949,371.9 239.9,373.95949 239.9,376.5 C239.9,379.04051 241.95949,381.1 244.5,381.1 Z M244.5,358.1 C247.04051,358.1 249.1,356.04051 249.1,353.5 C249.1,350.95949 247.04051,348.9 244.5,348.9 C241.95949,348.9 239.9,350.95949 239.9,353.5 C239.9,356.04051 241.95949,358.1 244.5,358.1 Z" id="Rectangle-4"></path>
        </g>
    </g>
</svg>