<?xml version="1.0" encoding="UTF-8" standalone="no"?>
<svg width="154px" height="154px" viewBox="0 0 154 154" version="1.1" xmlns="http://www.w3.org/2000/svg" xmlns:xlink="http://www.w3.org/1999/xlink" xmlns:sketch="http://www.bohemiancoding.com/sketch/ns">
    <!-- Generator: Sketch 3.4.4 (17249) - http://www.bohemiancoding.com/sketch -->
    <title>Rectangle 13</title>
    <desc>Created with Sketch.</desc>
    <defs></defs>
    <g id="Page-1" stroke="none" stroke-width="1" fill="none" fill-rule="evenodd" sketch:type="MSPage">
        <g id="fibbage-menu" sketch:type="MSArtboardGroup" transform="translate(-327.000000, -332.000000)" fill="#FFFFFF">
            <g id="fibbage-+-Rectangle-13" sketch:type="MSLayerGroup" transform="translate(324.000000, 332.000000)">
                <path d="M3.03361345,8.00281608 C3.03361345,3.5829828 6.61537576,0 11.03186,0 L148.312678,0 C152.729987,0 156.310924,3.58981582 156.310924,8.00281608 L156.310924,145.619135 C156.310924,150.038968 152.729162,153.621951 148.312678,153.621951 L11.03186,153.621951 C6.61455039,153.621951 3.03361345,150.032135 3.03361345,145.619135 L3.03361345,8.00281608 Z M93.6182358,83.1442273 L61.5758246,83.1442273 L59.398185,88.50703 C56.1628186,96.2810541 54.5451596,101.352801 54.5451596,103.722424 C54.5451596,106.258335 55.4058371,108.181026 57.127218,109.490554 C58.8485989,110.800082 61.0573255,111.454837 63.7534642,111.454837 L63.7534642,114.323313 L38.6794997,114.323313 L38.6794997,111.454837 C42.4126148,110.872824 45.1916699,109.552923 47.0167484,107.495093 C48.841827,105.437263 51.040184,101.103413 53.6118855,94.4934143 C53.8192808,93.8698295 54.8147632,91.458671 56.5983627,87.2598665 L81.1123627,28.5808281 L83.5388754,28.5808281 L111.723754,95.7405777 L115.581287,104.595438 C116.452347,106.590909 117.624113,108.160241 119.096619,109.30348 C120.569126,110.446719 122.777852,111.16383 125.722865,111.454837 L125.722865,114.323313 L92.5605252,114.323313 L92.5605252,111.454837 C96.6254727,111.454837 99.373419,111.153442 100.804446,110.550643 C102.235474,109.947845 102.950977,108.752658 102.950977,106.965048 C102.950977,106.050457 101.996973,103.327511 100.088936,98.7961281 L93.6182358,83.1442273 Z M92.5605252,80.3381096 L77.6281394,44.2950871 L62.7579718,80.3381096 L92.5605252,80.3381096 Z" id="Rectangle-13" sketch:type="MSShapeGroup"></path>
            </g>
        </g>
    </g>
</svg>