<?xml version="1.0" encoding="UTF-8" standalone="no"?>
<svg width="157px" height="157px" viewBox="0 0 157 157" version="1.1" xmlns="http://www.w3.org/2000/svg" xmlns:xlink="http://www.w3.org/1999/xlink" xmlns:sketch="http://www.bohemiancoding.com/sketch/ns">
    <!-- Generator: Sketch 3.4.4 (17249) - http://www.bohemiancoding.com/sketch -->
    <title>Rectangle 16</title>
    <desc>Created with Sketch.</desc>
    <defs></defs>
    <g id="Page-1" stroke="none" stroke-width="1" fill="none" fill-rule="evenodd" sketch:type="MSPage">
        <g id="game-selection" sketch:type="MSArtboardGroup" transform="translate(-322.000000, -623.000000)" fill="#D0011B">
            <g id="mafia-+-Rectangle-16" sketch:type="MSLayerGroup" transform="translate(322.000000, 623.000000)">
                <path d="M0,8.00665288 C0,3.5847006 3.57414877,0 8.00149739,0 L148.998503,0 C153.417608,0 157,3.5831284 157,8.00665288 L157,148.562967 C157,152.98492 153.425851,156.56962 148.998503,156.56962 L8.00149739,156.56962 C3.5823924,156.56962 0,152.986492 0,148.562967 L0,8.00665288 Z M137.813445,102.448283 L127.864569,78.1491699 C123.685537,68.3748803 137.957375,66.6511907 137.957375,66.6511907 C141.128895,65.0672597 137.957375,63.3435701 137.957375,63.3435701 C134.641925,64.0587313 132.190057,59.8949318 132.190057,59.8949318 L130.318962,56.0106496 C129.308924,53.7115574 129.021063,53.4232265 130.173769,48.968578 C131.326475,44.5076341 127.651199,44.724197 127.002249,45.3713675 C126.352037,46.0223153 124.334486,47.0245482 122.820692,45.5149034 C121.308159,44.0052585 117.48769,44.0795446 117.48769,44.0795446 L116.045861,41.2025316 L114.458839,41.2025316 L112.874341,44.0782855 L84.9051239,44.0782855 L84.9051239,44.9407599 L26.3746787,44.9407599 L26.3746787,43.5028829 L25.2181851,43.5028829 C25.0767797,42.3508187 24.2119346,41.4896034 24.2119346,41.4896034 C19.4521301,41.4896034 18.4458796,45.0830367 18.4458796,45.0830367 L14.6948507,45.0830367 C12.5346317,48.9673189 14.8438313,53.2784316 14.8438313,53.2784316 L19.0228639,53.2784316 L19.0228639,64.9237238 L27.8165081,64.9237238 L28.5348977,66.7947266 L50.4514618,66.7947266 C70.9211464,66.7947266 67.316573,83.9006776 67.316573,83.9006776 C82.7436424,90.9465264 92.4021317,86.4906188 92.4021317,86.4906188 C100.044332,84.9104651 101.484899,91.3783931 101.484899,91.3783931 L106.672707,111.939278 C107.105761,115.531452 106.493426,117.68449 106.493426,117.68449 L106.503526,117.979116 L106.493426,117.979116 L106.493426,120.881311 C106.493426,120.881311 106.373484,122.452651 108.552641,122.208388 L132.743053,120.178741 C133.328875,121.165865 134.396991,121.831922 135.626712,121.831922 C137.486445,121.831922 138.990139,120.329831 138.990139,118.478974 C138.990139,118.108802 138.915649,117.825508 138.805807,117.582504 L139.541872,117.577468 C141.272825,107.942937 137.813445,102.448283 137.813445,102.448283 Z M128.367063,45.7881252 C128.973086,45.7881252 129.466742,46.2779099 129.466742,46.8860487 C129.466742,47.4916694 128.973086,47.9814541 128.367063,47.9814541 C127.759778,47.9814541 127.262334,47.4916694 127.262334,46.8860487 C127.262334,46.2779099 127.758515,45.7881252 128.367063,45.7881252 L128.367063,45.7881252 Z M97.8803258,79.7305827 C97.4460094,82.321783 94.7075436,83.7584008 94.7075436,83.7584008 C85.3533283,86.8922674 79.3461267,86.0109068 74.5989477,84.5906571 C68.8051166,82.8531175 69.1927187,77.2841773 69.1927187,77.2841773 C69.1927187,69.6667032 77.1227804,69.8102391 77.1227804,69.8102391 L83.6084875,69.8102391 C87.2143235,78.4349825 78.4194168,82.321783 78.4194168,82.321783 C77.2629231,82.6063365 78.4194168,83.4713291 78.4194168,83.4713291 C83.7524179,83.3277932 88.075381,74.7005316 88.075381,74.7005316 L87.9339756,71.1058392 L89.9490016,69.8102391 C97.8803258,69.8102391 98.3133796,77.1444187 97.8803258,79.7305827 L97.8803258,79.7305827 Z M137.812182,118.477715 C137.812182,119.677624 136.831182,120.654676 135.627975,120.654676 C134.422242,120.654676 133.44503,119.678883 133.44503,118.477715 C133.44503,118.171757 133.510682,117.880908 133.623049,117.617759 L137.619012,117.5888 C137.738954,117.860762 137.812182,118.160425 137.812182,118.477715 L137.812182,118.477715 Z" id="Rectangle-16" sketch:type="MSShapeGroup"></path>
            </g>
        </g>
    </g>
</svg>