<?xml version="1.0" encoding="UTF-8" standalone="no"?>
<svg width="211px" height="90px" viewBox="0 0 211 90" version="1.1" xmlns="http://www.w3.org/2000/svg" xmlns:xlink="http://www.w3.org/1999/xlink">
    <!-- Generator: Sketch 3.6.1 (26313) - http://www.bohemiancoding.com/sketch -->
    <title>Group 5</title>
    <desc>Created with Sketch.</desc>
    <defs></defs>
    <g id="Page-1" stroke="none" stroke-width="1" fill="none" fill-rule="evenodd">
        <g id="Artboard-1" transform="translate(-85.000000, -67.000000)" fill="#4A4A4A">
            <g id="Group-5" transform="translate(83.000000, 67.000000)">
                <g id="noun_97594_cc" transform="translate(61.594937, 15.000000) rotate(-270.000000) translate(-61.594937, -15.000000) translate(46.594937, 11.000000)">
                    <g id="Group">
                        <g transform="translate(9.873418, 0.000000)" id="Shape">
                            <path d="M7.21898734,5.94151899 L2.99240506,5.94151899 C2.64607595,5.94151899 2.08443038,5.81734177 1.99405063,5.08518987 L0.378227848,5.08518987 C0.445063291,6.12987342 1.16468354,7.54518987 2.99240506,7.54518987 L7.22468354,7.54518987 C8.24772152,7.54518987 9.75075949,6.88405063 9.83734177,5.08518987 L8.23253165,5.08518987 C8.19227848,5.45202532 7.98987342,5.92329114 7.21898734,5.94151899 Z"></path>
                            <path d="M1.98493671,2.82417722 C2.02518987,2.45658228 2.22683544,1.98493671 2.99240506,1.96822785 L7.22468354,1.96822785 C7.57101266,1.96822785 8.13265823,2.09240506 8.22341772,2.82417722 L9.83886076,2.82417722 C9.77202532,1.77949367 9.05240506,0.364177215 7.22468354,0.364177215 L2.99240506,0.364177215 C1.96974684,0.364177215 0.466708861,1.0256962 0.380126582,2.82417722 L1.98493671,2.82417722 L1.98493671,2.82417722 Z"></path>
                        </g>
                        <path d="M12.3463291,4.5964557 L7.5364557,4.5964557 C7.1821519,4.5964557 6.89506329,4.30898734 6.89506329,3.95468354 C6.89506329,3.60037975 7.1821519,3.31329114 7.5364557,3.31329114 L12.3463291,3.31329114 C12.7006329,3.31329114 12.9877215,3.60037975 12.9877215,3.95468354 C12.9877215,4.30898734 12.7006329,4.5964557 12.3463291,4.5964557 L12.3463291,4.5964557 Z" id="Shape"></path>
                        <path d="M22.5117722,4.5964557 L17.7018987,4.5964557 C17.3475949,4.5964557 17.0605063,4.30898734 17.0605063,3.95468354 C17.0605063,3.60037975 17.3479747,3.31329114 17.7018987,3.31329114 L22.5117722,3.31329114 C22.8660759,3.31329114 23.1531646,3.60037975 23.1531646,3.95468354 C23.1531646,4.30898734 22.8656962,4.5964557 22.5117722,4.5964557 L22.5117722,4.5964557 Z" id="Shape"></path>
                        <path d="M8.17860759,5.08518987 L8.17860759,5.08518987 C8.17860759,6.1564557 7.27670886,6.25670886 6.99797468,6.26202532 L2.73075949,6.26202532 C1.65683544,6.26202532 1.55848101,5.35746835 1.5535443,5.08556962 L1.5535443,3.10708861 C1.5535443,2.03278481 2.45848101,1.93443038 2.73075949,1.92949367 L7.00139241,1.92949367 C7.81860759,1.92949367 8.07075949,2.45316456 8.14670886,2.82379747 L9.44278481,2.82379747 C9.33,1.85962025 8.64113924,0.646329114 7.00139241,0.646329114 L2.73075949,0.646329114 C1.74189873,0.646329114 0.270379747,1.30177215 0.270379747,3.10670886 L0.270379747,5.08518987 C0.270379747,6.07405063 0.925443038,7.54481013 2.73075949,7.54481013 L7.00139241,7.54481013 C7.99025316,7.54481013 9.46177215,6.88974684 9.46177215,5.08518987 L9.46177215,5.08481013 L8.17860759,5.08481013 L8.17860759,5.08518987 Z" id="Shape"></path>
                        <path d="M21.8787342,5.08518987 L21.8787342,5.08518987 C21.8787342,6.1564557 22.7802532,6.25670886 23.0593671,6.26202532 L27.3265823,6.26202532 C28.4001266,6.26202532 28.4988608,5.35746835 28.5037975,5.08556962 L28.5037975,3.10708861 C28.5037975,2.03278481 27.5988608,1.93443038 27.3265823,1.92949367 L23.0559494,1.92949367 C22.2387342,1.92949367 21.9865823,2.45316456 21.9102532,2.82379747 L20.6141772,2.82379747 C20.726962,1.85962025 21.4158228,0.646329114 23.0559494,0.646329114 L27.3265823,0.646329114 C28.315443,0.646329114 29.786962,1.30177215 29.786962,3.10670886 L29.786962,5.08518987 C29.786962,6.07405063 29.131519,7.54481013 27.3265823,7.54481013 L23.0559494,7.54481013 C22.0667089,7.54481013 20.5955696,6.88974684 20.5955696,5.08518987 L20.5955696,5.08481013 L21.8787342,5.08481013 L21.8787342,5.08518987 Z" id="Shape"></path>
                    </g>
                </g>
                <g id="noun_97594_cc-copy" transform="translate(142.594937, 15.000000) rotate(-270.000000) translate(-142.594937, -15.000000) translate(127.594937, 11.000000)">
                    <g id="Group" transform="translate(0.000000, -0.000000)">
                        <g transform="translate(9.873418, 0.000000)" id="Shape">
                            <path d="M7.21898734,5.94151899 L2.99240506,5.94151899 C2.64607595,5.94151899 2.08443038,5.81734177 1.99405063,5.08518987 L0.378227848,5.08518987 C0.445063291,6.12987342 1.16468354,7.54518987 2.99240506,7.54518987 L7.22468354,7.54518987 C8.24772152,7.54518987 9.75075949,6.88405063 9.83734177,5.08518987 L8.23253165,5.08518987 C8.19227848,5.45202532 7.98987342,5.92329114 7.21898734,5.94151899 Z"></path>
                            <path d="M1.98493671,2.82417722 C2.02518987,2.45658228 2.22683544,1.98493671 2.99240506,1.96822785 L7.22468354,1.96822785 C7.57101266,1.96822785 8.13265823,2.09240506 8.22341772,2.82417722 L9.83886076,2.82417722 C9.77202532,1.77949367 9.05240506,0.364177215 7.22468354,0.364177215 L2.99240506,0.364177215 C1.96974684,0.364177215 0.466708861,1.0256962 0.380126582,2.82417722 L1.98493671,2.82417722 L1.98493671,2.82417722 Z"></path>
                        </g>
                        <path d="M12.3463291,4.5964557 L7.5364557,4.5964557 C7.1821519,4.5964557 6.89506329,4.30898734 6.89506329,3.95468354 C6.89506329,3.60037975 7.1821519,3.31329114 7.5364557,3.31329114 L12.3463291,3.31329114 C12.7006329,3.31329114 12.9877215,3.60037975 12.9877215,3.95468354 C12.9877215,4.30898734 12.7006329,4.5964557 12.3463291,4.5964557 L12.3463291,4.5964557 Z" id="Shape"></path>
                        <path d="M22.5117722,4.5964557 L17.7018987,4.5964557 C17.3475949,4.5964557 17.0605063,4.30898734 17.0605063,3.95468354 C17.0605063,3.60037975 17.3479747,3.31329114 17.7018987,3.31329114 L22.5117722,3.31329114 C22.8660759,3.31329114 23.1531646,3.60037975 23.1531646,3.95468354 C23.1531646,4.30898734 22.8656962,4.5964557 22.5117722,4.5964557 L22.5117722,4.5964557 Z" id="Shape"></path>
                        <path d="M8.17860759,5.08518987 L8.17860759,5.08518987 C8.17860759,6.1564557 7.27670886,6.25670886 6.99797468,6.26202532 L2.73075949,6.26202532 C1.65683544,6.26202532 1.55848101,5.35746835 1.5535443,5.08556962 L1.5535443,3.10708861 C1.5535443,2.03278481 2.45848101,1.93443038 2.73075949,1.92949367 L7.00139241,1.92949367 C7.81860759,1.92949367 8.07075949,2.45316456 8.14670886,2.82379747 L9.44278481,2.82379747 C9.33,1.85962025 8.64113924,0.646329114 7.00139241,0.646329114 L2.73075949,0.646329114 C1.74189873,0.646329114 0.270379747,1.30177215 0.270379747,3.10670886 L0.270379747,5.08518987 C0.270379747,6.07405063 0.925443038,7.54481013 2.73075949,7.54481013 L7.00139241,7.54481013 C7.99025316,7.54481013 9.46177215,6.88974684 9.46177215,5.08518987 L9.46177215,5.08481013 L8.17860759,5.08481013 L8.17860759,5.08518987 Z" id="Shape"></path>
                        <path d="M21.8787342,5.08518987 L21.8787342,5.08518987 C21.8787342,6.1564557 22.7802532,6.25670886 23.0593671,6.26202532 L27.3265823,6.26202532 C28.4001266,6.26202532 28.4988608,5.35746835 28.5037975,5.08556962 L28.5037975,3.10708861 C28.5037975,2.03278481 27.5988608,1.93443038 27.3265823,1.92949367 L23.0559494,1.92949367 C22.2387342,1.92949367 21.9865823,2.45316456 21.9102532,2.82379747 L20.6141772,2.82379747 C20.726962,1.85962025 21.4158228,0.646329114 23.0559494,0.646329114 L27.3265823,0.646329114 C28.315443,0.646329114 29.786962,1.30177215 29.786962,3.10670886 L29.786962,5.08518987 C29.786962,6.07405063 29.131519,7.54481013 27.3265823,7.54481013 L23.0559494,7.54481013 C22.0667089,7.54481013 20.5955696,6.88974684 20.5955696,5.08518987 L20.5955696,5.08481013 L21.8787342,5.08481013 L21.8787342,5.08518987 Z" id="Shape"></path>
                    </g>
                </g>
                <g id="Group-2" transform="translate(107.206026, 54.680729) rotate(-3.000000) translate(-107.206026, -54.680729) translate(2.206026, 24.180729)" stroke="#FFFFFF" stroke-width="0.25">
                    <rect id="Rectangle-191" x="1.36991235" y="38.2480763" width="198.637291" height="22.1436231"></rect>
                    <path d="M200.472603,5.57306118 L199.420799,27.703195 L0.90451282,22.6097319 L1.95631636,0.479598055 L200.472603,5.57306118 Z" id="Rectangle-191"></path>
                    <path d="M9.58938647,24.2721172 L207.742807,14.0913965 L209.845133,36.1810789 L11.6917121,46.3617995 L9.58938647,24.2721172 L9.58938647,24.2721172 Z" id="Rectangle-191"></path>
                </g>
            </g>
        </g>
    </g>
</svg>