<?xml version="1.0" encoding="UTF-8" standalone="no"?>
<svg width="154px" height="154px" viewBox="0 0 154 154" version="1.1" xmlns="http://www.w3.org/2000/svg" xmlns:xlink="http://www.w3.org/1999/xlink" xmlns:sketch="http://www.bohemiancoding.com/sketch/ns">
    <!-- Generator: Sketch 3.4.4 (17249) - http://www.bohemiancoding.com/sketch -->
    <title>Rectangle 16</title>
    <desc>Created with Sketch.</desc>
    <defs></defs>
    <g id="Page-1" stroke="none" stroke-width="1" fill="none" fill-rule="evenodd" sketch:type="MSPage">
        <g id="sketches" sketch:type="MSArtboardGroup" transform="translate(-931.000000, -433.000000)" fill="#003366">
            <path d="M931,441.009073 C931,436.585784 934.58,433 939.009073,433 L1076.99093,433 C1081.41422,433 1085,436.58 1085,441.009073 L1085,578.990927 C1085,583.414216 1081.42,587 1076.99093,587 L939.009073,587 C934.585784,587 931,583.42 931,578.990927 L931,441.009073 Z M993.199,497.645115 C993.199,497.645115 992.116086,508.031738 995.113931,511.457836 C998.111776,514.882098 998.849707,518.445902 1002.36779,518.445902 C1005.88403,518.445902 1008.6974,518.971016 1008.6974,518.971016 C1008.6974,518.971016 1011.51076,518.445902 1015.02884,518.445902 C1018.54509,518.445902 1019.28302,514.883934 1022.28086,511.457836 C1025.27871,508.031738 1024.19579,497.645115 1024.19579,497.645115 C1022.8915,498.528262 1019.09669,498.528262 1019.09669,505.490623 C1019.09669,512.451148 1008.6974,512.340984 1008.6974,512.340984 C1008.6974,512.340984 998.298103,512.449311 998.298103,505.490623 C998.298103,498.530098 994.505138,498.530098 993.199,497.645115 Z M991.894707,495.87882 C995.781759,497.206295 997.707759,498.089443 998.298103,499.745574 C998.888448,501.403541 1001.40664,502.84118 1008.6974,502.84118 C1015.98816,502.84118 1018.5045,501.405377 1019.09669,499.745574 C1019.68703,498.089443 1021.61488,497.204459 1025.50009,495.87882 C1029.38529,494.55318 1031.38509,492.12223 1031.38509,490.354098 C1031.38509,488.585967 1028.88166,487.293377 1028.88166,487.293377 C1031.19322,483.944393 1032.53257,479.982164 1032.53257,475.731672 C1032.53072,463.729311 1021.86024,454 1008.6974,454 C995.534552,454 984.864069,463.729311 984.864069,475.731672 C984.864069,479.980328 986.203414,483.944393 988.514983,487.293377 C988.516828,487.293377 986.011552,488.585967 986.011552,490.354098 C986.011552,492.12223 988.0095,494.55318 991.894707,495.87882 Z M1016.71871,476.431213 C1021.00609,476.431213 1023.53166,481.070951 1023.53166,481.623607 L1023.53166,485.382033 C1023.53166,486.707672 1022.97636,487.260328 1022.64429,488.033311 C1022.31038,488.806295 1019.98036,489.358951 1016.71871,488.033311 C1013.45705,486.705836 1012.2081,482.839082 1012.13616,481.955934 C1012.06421,481.070951 1012.42764,476.431213 1016.71871,476.431213 L1016.71871,476.431213 Z M1008.49816,485.896131 L1008.49816,485.896131 C1011.08829,486.558951 1012.01071,495.252721 1012.01071,495.252721 C1010.48872,493.558033 1008.49816,493.704918 1008.49816,493.704918 C1008.49816,493.704918 1006.50943,493.558033 1004.98745,495.252721 C1004.98745,495.252721 1005.90986,486.558951 1008.49816,485.896131 L1008.49816,485.896131 Z M993.864983,481.623607 C993.864983,481.070951 996.388707,476.431213 1000.67793,476.431213 C1004.96531,476.431213 1005.33059,481.070951 1005.25864,481.955934 C1005.18853,482.839082 1003.93774,486.707672 1000.67793,488.033311 C997.416276,489.358951 995.086259,488.806295 994.752345,488.033311 C994.418431,487.258492 993.864983,486.705836 993.864983,485.382033 L993.864983,481.623607 Z M1001.4546,505.903738 C1001.67783,505.944131 1001.89183,505.799082 1001.93426,505.578754 L1002.30507,502.795279 C1002.3475,502.573115 1002.20176,502.360131 1001.98038,502.317902 L1001.22584,502.176525 L1000.47316,502.033311 C1000.24993,501.992918 1000.03593,502.137967 999.9935,502.360131 L999.491652,504.385283 C999.433866,504.618473 999.318293,505.084852 999.318293,505.084852 C999.275862,505.30518 999.421603,505.518164 999.644828,505.560393 L1000.55064,505.732984 L1001.4546,505.903738 Z M1004.22922,502.854033 L1003.46731,502.76223 C1003.24224,502.734689 1003.03931,502.894426 1003.01164,503.11659 L1002.51722,505.881705 C1002.48955,506.103869 1002.64821,506.307672 1002.87328,506.335213 L1003.78831,506.447213 L1004.70334,506.559213 C1004.92841,506.586754 1005.13134,506.427016 1005.15902,506.204852 L1005.34719,503.403016 C1005.37486,503.179016 1005.21436,502.975213 1004.99114,502.947672 L1004.22922,502.854033 Z M1008.0886,503.272656 L1007.26028,503.212066 L1006.4301,503.153311 C1006.18474,503.134951 1005.97259,503.318557 1005.95598,503.562754 L1005.56488,506.57941 C1005.54643,506.823607 1005.73091,507.034754 1005.97628,507.053115 L1006.97248,507.124721 L1007.97053,507.196328 C1008.21405,507.214689 1008.42621,507.031082 1008.44466,506.788721 L1008.5,503.746361 C1008.5166,503.502164 1008.33397,503.291016 1008.0886,503.272656 Z M1010.96469,503.153311 L1010.13636,503.212066 L1009.30619,503.272656 C1009.06267,503.291016 1008.88003,503.502164 1008.89664,503.746361 L1008.95014,506.788721 C1008.96859,507.031082 1009.18074,507.212852 1009.4261,507.196328 L1010.42231,507.124721 L1011.41852,507.053115 C1011.66388,507.034754 1011.84652,506.823607 1011.82991,506.57941 L1011.44066,503.562754 C1011.42405,503.316721 1011.21005,503.134951 1010.96469,503.153311 Z M1047.87784,543.063869 C1043.8801,542.623213 1033.5546,539.74977 1030.00331,538.534295 C1028.24703,537.933902 1023.67371,535.930754 1019.49517,534.057967 C1023.67555,532.183344 1028.24703,530.182033 1030.00331,529.581639 C1033.55645,528.366164 1043.8801,525.492721 1047.87784,525.052066 C1051.87374,524.609574 1055.98217,524.829902 1059.75669,521.846295 C1063.53121,518.864525 1059.97807,515.218098 1058.86748,513.890623 C1057.75505,512.564984 1054.31445,512.675148 1053.42709,509.361049 C1052.53972,506.045115 1048.43129,503.726164 1045.76736,503.968525 C1043.10343,504.214557 1038.21648,513.227803 1033.5546,516.914623 C1030.07526,519.666885 1014.88864,526.370361 1008.5,529.135475 C1002.11321,526.370361 986.928431,519.666885 983.447241,516.914623 C978.785362,513.227803 973.898414,504.214557 971.234483,503.968525 C968.570552,503.724328 964.462121,506.045115 963.574759,509.361049 C962.685552,512.675148 959.244948,512.564984 958.134362,513.890623 C957.023776,515.218098 953.472483,518.864525 957.247,521.846295 C961.023362,524.829902 965.129948,524.609574 969.125845,525.052066 C973.123586,525.492721 983.449086,528.366164 987.000379,529.581639 C988.756655,530.182033 993.329983,532.18518 997.508517,534.057967 C993.328138,535.930754 988.756655,537.933902 987.000379,538.534295 C983.447241,539.74977 973.123586,542.623213 969.125845,543.063869 C965.129948,543.506361 961.021517,543.286033 957.247,546.269639 C953.472483,549.253246 957.025621,552.897836 958.134362,554.225311 C959.246793,555.550951 962.687397,555.440787 963.574759,558.754885 C964.462121,562.07082 968.570552,564.38977 971.234483,564.14741 C973.898414,563.901377 978.785362,554.888131 983.447241,551.201311 C986.928431,548.449049 1002.11321,541.745574 1008.5,538.980459 C1014.88864,541.745574 1030.07526,548.449049 1033.5546,551.201311 C1038.21648,554.888131 1043.10343,563.901377 1045.76736,564.14741 C1048.43129,564.391607 1052.53972,562.07082 1053.42709,558.754885 C1054.31445,555.440787 1057.7569,555.550951 1058.86748,554.225311 C1059.97807,552.897836 1063.53121,549.253246 1059.75669,546.269639 C1055.98033,543.286033 1051.87374,543.506361 1047.87784,543.063869 Z M1012.69145,506.559213 L1013.60648,506.447213 L1014.51967,506.335213 C1014.74474,506.307672 1014.90524,506.103869 1014.87757,505.881705 L1014.38316,503.11659 C1014.35548,502.894426 1014.15071,502.734689 1013.92564,502.76223 L1013.16557,502.854033 L1012.40366,502.947672 C1012.17859,502.975213 1012.01809,503.179016 1012.0476,503.40118 L1012.23393,506.203016 C1012.26345,506.427016 1012.46638,506.586754 1012.69145,506.559213 Z M1016.846,505.732984 L1017.75181,505.560393 C1017.97319,505.52 1018.11893,505.30518 1018.07834,505.084852 L1017.40314,502.360131 C1017.36071,502.137967 1017.14486,501.992918 1016.92348,502.033311 L1016.16895,502.176525 L1015.41626,502.317902 C1015.19488,502.360131 1015.04914,502.573115 1015.08972,502.795279 L1015.46053,505.578754 C1015.50297,505.799082 1015.71881,505.944131 1015.94019,505.903738 L1016.846,505.732984 Z M1004.19048,509.249049 L1004.32516,511.49823 C1004.327,511.68 1004.47459,511.825049 1004.65722,511.825049 L1005.27155,511.821377 L1005.88772,511.817705 C1006.07036,511.817705 1006.21795,511.67082 1006.2161,511.489049 L1006.33048,509.239869 C1006.32864,509.058098 1006.18105,508.911213 1005.99841,508.913049 L1005.25864,508.916721 L1004.51702,508.918557 C1004.33622,508.920393 1004.18864,509.067279 1004.19048,509.249049 Z M1007.50195,508.881836 L1006.76402,508.933246 C1006.58322,508.947934 1006.44671,509.104 1006.46147,509.28577 L1006.74926,511.522098 C1006.76217,511.702033 1006.91898,511.837902 1007.09978,511.823213 L1007.7141,511.780984 L1008.32843,511.736918 C1008.50922,511.72223 1008.64574,511.566164 1008.63283,511.38623 L1008.59224,509.133377 C1008.57933,508.953443 1008.42067,508.817574 1008.24172,508.832262 L1007.50195,508.881836 Z M1008.78041,511.382557 C1008.76566,511.564328 1008.90217,511.720393 1009.08481,511.733246 L1009.69914,511.777311 L1010.31347,511.819541 C1010.49426,511.83423 1010.65291,511.698361 1010.66398,511.518426 L1010.95178,509.282098 C1010.96469,509.100328 1010.83002,508.944262 1010.64738,508.929574 L1009.91129,508.878164 L1009.17336,508.824918 C1008.99072,508.81023 1008.83391,508.946098 1008.821,509.126033 L1008.78041,511.382557 Z M1011.25433,511.46518 C1011.25433,511.645115 1011.40191,511.792 1011.58455,511.790164 L1012.20072,511.786492 L1012.8169,511.784656 C1012.99953,511.78282 1013.14528,511.635934 1013.14343,511.454164 L1013.25781,509.203148 C1013.25597,509.021377 1013.10838,508.876328 1012.92574,508.876328 L1012.18781,508.88 L1011.44803,508.883672 C1011.26355,508.887344 1011.11781,509.03423 1011.11781,509.214164 L1011.25433,511.46518 Z" id="Rectangle-16" sketch:type="MSShapeGroup"></path>
        </g>
    </g>
</svg>