<?xml version="1.0" encoding="UTF-8" standalone="no"?>
<svg width="48px" height="50px" viewBox="0 0 48 50" version="1.1" xmlns="http://www.w3.org/2000/svg" xmlns:xlink="http://www.w3.org/1999/xlink">
    <!-- Generator: Sketch 3.6.1 (26313) - http://www.bohemiancoding.com/sketch -->
    <title>Rectangle 130</title>
    <desc>Created with Sketch.</desc>
    <defs></defs>
    <g id="Page-1" stroke="none" stroke-width="1" fill="none" fill-rule="evenodd">
        <g id="Artboard-1" transform="translate(-164.000000, -7.000000)" fill="#FFFFFF">
            <path d="M181.063845,26.7828543 C181.063845,26.7828543 180.572997,31.4907592 181.931818,33.0436937 C183.29064,34.595796 183.625119,36.2111475 185.219749,36.2111475 C186.813542,36.2111475 188.088744,36.4491642 188.088744,36.4491642 C188.088744,36.4491642 189.363946,36.2111475 190.958575,36.2111475 C192.552368,36.2111475 192.886848,34.5966282 194.245669,33.0436937 C195.604491,31.4907592 195.113643,26.7828543 195.113643,26.7828543 C194.522451,27.1831552 192.802392,27.1831552 192.802392,30.3389578 C192.802392,33.4939282 188.088744,33.4439946 188.088744,33.4439946 C188.088744,33.4439946 183.375096,33.493096 183.375096,30.3389578 C183.375096,27.1839875 181.655873,27.1839875 181.063845,26.7828543 Z M180.472653,25.9822525 C182.234522,26.5839522 183.107513,26.9842531 183.375096,27.7349214 C183.642679,28.4864218 184.784089,29.1380551 188.088744,29.1380551 C191.393398,29.1380551 192.533972,28.487254 192.802392,27.7349214 C193.069975,26.9842531 193.943802,26.58312 195.704835,25.9822525 C197.465867,25.381385 198.372306,24.2795172 198.372306,23.4780832 C198.372306,22.6766491 197.237585,22.0907617 197.237585,22.0907617 C198.285341,20.5727807 198.892421,18.7768361 198.892421,16.850232 C198.891585,11.4099678 194.055016,7 188.088744,7 C182.122471,7 177.285902,11.4099678 177.285902,16.850232 C177.285902,18.7760039 177.892982,20.5727807 178.940738,22.0907617 C178.941574,22.0907617 177.806018,22.6766491 177.806018,23.4780832 C177.806018,24.2795172 178.71162,25.381385 180.472653,25.9822525 Z M191.724532,17.1673102 C193.667856,17.1673102 194.812611,19.2703464 194.812611,19.5208465 L194.812611,21.224414 C194.812611,21.8252815 194.560916,22.0757817 194.4104,22.426149 C194.259048,22.7765163 193.20293,23.0270165 191.724532,22.426149 C190.246134,21.8244493 189.680028,20.0717804 189.647417,19.6714795 C189.614805,19.2703464 189.779536,17.1673102 191.724532,17.1673102 Z M187.998434,21.4574374 C189.172456,21.7578712 189.590555,25.6984633 189.590555,25.6984633 C188.900692,24.9303183 187.998434,24.9968964 187.998434,24.9968964 C187.998434,24.9968964 187.097013,24.9303183 186.40715,25.6984633 C186.40715,25.6984633 186.825249,21.7578712 187.998434,21.4574374 Z M181.365712,19.5208465 C181.365712,19.2703464 182.509631,17.1673102 184.453791,17.1673102 C186.397115,17.1673102 186.562682,19.2703464 186.530071,19.6714795 C186.498295,20.0717804 185.931353,21.8252815 184.453791,22.426149 C182.975393,23.0270165 181.919275,22.7765163 181.767923,22.426149 C181.616572,22.0749494 181.365712,21.8244493 181.365712,21.224414 L181.365712,19.5208465 Z M184.805831,30.5262088 C184.907011,30.5445178 185.004009,30.4787719 185.023242,30.3789047 L185.191318,29.1172494 C185.21055,29.01655 185.144491,28.9200118 185.044147,28.9008706 L184.702142,28.8367891 L184.360973,28.7718755 C184.259793,28.7535665 184.162794,28.8193124 184.143562,28.9200118 L183.916091,29.8379448 C183.889898,29.9436418 183.837513,30.1550358 183.837513,30.1550358 C183.818281,30.254903 183.88434,30.3514412 183.98552,30.3705824 L184.396094,30.4488117 L184.805831,30.5262088 Z M186.063472,29.1438807 L185.718123,29.1022694 C185.616106,29.089786 185.524125,29.1621897 185.511582,29.2628891 L185.287481,30.5162221 C185.274938,30.6169215 185.346851,30.7092986 185.448867,30.721782 L185.863621,30.7725478 L186.278375,30.8233136 C186.380391,30.835797 186.472373,30.7633933 186.484916,30.6626939 L186.570208,29.3927164 C186.582751,29.2911848 186.510002,29.1988076 186.408822,29.1863242 L186.063472,29.1438807 Z M187.812798,29.3336283 L187.437346,29.3061648 L187.061056,29.2795336 C186.949842,29.2712113 186.853679,29.354434 186.846154,29.4651201 L186.66888,30.8324681 C186.660518,30.9431542 186.744137,31.0388603 186.855352,31.0471825 L187.306899,31.0796394 L187.759282,31.1120962 C187.86966,31.1204184 187.965823,31.0371958 187.974185,30.9273419 L187.999271,29.5483427 C188.006796,29.4376566 187.924013,29.3419506 187.812798,29.3336283 Z M189.116431,29.2795336 L188.740978,29.3061648 L188.364689,29.3336283 C188.254311,29.3419506 188.171527,29.4376566 188.179053,29.5483427 L188.203303,30.9273419 C188.211665,31.0371958 188.307828,31.1195862 188.419042,31.1120962 L188.870589,31.0796394 L189.322136,31.0471825 C189.43335,31.0388603 189.516134,30.9431542 189.508608,30.8324681 L189.33217,29.4651201 C189.324644,29.3536017 189.227645,29.2712113 189.116431,29.2795336 Z M205.847916,47.3696394 C204.035875,47.169905 199.355675,45.8674707 197.745994,45.3165368 C196.949933,45.0443987 194.876999,44.1364397 192.98301,43.2875688 C194.877835,42.4378656 196.949933,41.5307388 197.745994,41.2586007 C199.356511,40.7076668 204.035875,39.4052325 205.847916,39.2054982 C207.65912,39.0049316 209.521333,39.1047988 211.232194,37.7524308 C212.943055,36.4008951 211.332538,34.7480934 210.829147,34.1463937 C210.32492,33.5455262 208.76541,33.5954598 208.363199,32.0932911 C207.960988,30.5902902 206.098775,29.5391882 204.891305,29.6490421 C203.683835,29.7605605 201.468747,33.84596 199.355675,35.5170706 C197.778606,36.7645781 190.895024,39.8030367 187.999271,41.0563697 C185.104353,39.8030367 178.221608,36.7645781 176.643702,35.5170706 C174.53063,33.84596 172.315542,29.7605605 171.108072,29.6490421 C169.900602,29.538356 168.038389,30.5902902 167.636178,32.0932911 C167.233131,33.5954598 165.673622,33.5455262 165.17023,34.1463937 C164.666839,34.7480934 163.057158,36.4008951 164.768019,37.7524308 C166.479716,39.1047988 168.341093,39.0049316 170.152298,39.2054982 C171.964339,39.4052325 176.644539,40.7076668 178.25422,41.2586007 C179.05028,41.5307388 181.123215,42.4386978 183.017203,43.2875688 C181.122379,44.1364397 179.05028,45.0443987 178.25422,45.3165368 C176.643702,45.8674707 171.964339,47.169905 170.152298,47.3696394 C168.341093,47.5702059 166.47888,47.4703388 164.768019,48.8227067 C163.057158,50.1750746 164.667675,51.8270441 165.17023,52.4287438 C165.674458,53.0296113 167.233967,52.9796777 167.636178,54.4818464 C168.038389,55.9848473 169.900602,57.0359493 171.108072,56.9260954 C172.315542,56.8145771 174.53063,52.7291775 176.643702,51.0580669 C178.221608,49.8105595 185.104353,46.7721008 187.999271,45.5187678 C190.895024,46.7721008 197.778606,49.8105595 199.355675,51.0580669 C201.468747,52.7291775 203.683835,56.8145771 204.891305,56.9260954 C206.098775,57.0367815 207.960988,55.9848473 208.363199,54.4818464 C208.76541,52.9796777 210.325756,53.0296113 210.829147,52.4287438 C211.332538,51.8270441 212.943055,50.1750746 211.232194,48.8227067 C209.520497,47.4703388 207.65912,47.5702059 205.847916,47.3696394 Z M189.899112,30.8233136 L190.313866,30.7725478 L190.727784,30.721782 C190.829801,30.7092986 190.90255,30.6169215 190.890007,30.5162221 L190.665906,29.2628891 C190.653363,29.1621897 190.560545,29.089786 190.458529,29.1022694 L190.114015,29.1438807 L189.768665,29.1863242 C189.666649,29.1988076 189.5939,29.2911848 189.607279,29.3918842 L189.691735,30.6618617 C189.705114,30.7633933 189.797096,30.835797 189.899112,30.8233136 Z M191.78223,30.4488117 L192.192803,30.3705824 C192.293147,30.3522735 192.359207,30.254903 192.34081,30.1550358 L192.034762,28.9200118 C192.015529,28.8193124 191.917694,28.7535665 191.81735,28.7718755 L191.475345,28.8367891 L191.134177,28.9008706 C191.033833,28.9200118 190.967773,29.01655 190.98617,29.1172494 L191.154245,30.3789047 C191.173478,30.4787719 191.271313,30.5445178 191.371657,30.5262088 L191.78223,30.4488117 Z M186.045912,32.0425253 L186.106955,33.0620027 C186.107791,33.1443931 186.174687,33.210139 186.25747,33.210139 L186.535924,33.2084745 L186.815214,33.2068101 C186.897998,33.2068101 186.964894,33.140232 186.964057,33.0578416 L187.015902,32.0383642 C187.015066,31.9559738 186.94817,31.8893957 186.865386,31.8902279 L186.530071,31.8918923 L186.193919,31.8927246 C186.111972,31.8935568 186.045076,31.9601349 186.045912,32.0425253 Z M187.546887,31.87608 L187.212408,31.8993824 C187.130461,31.9060402 187.068582,31.9767794 187.075272,32.0591699 L187.205719,33.0728216 C187.211572,33.1543798 187.282649,33.2159646 187.364596,33.2093068 L187.64305,33.1901656 L187.921504,33.1701921 C188.003452,33.1635343 188.06533,33.0927951 188.059477,33.0112369 L188.04108,31.9900951 C188.035227,31.9085369 187.963314,31.8469521 187.882203,31.8536099 L187.546887,31.87608 Z M188.126373,33.0095724 C188.119683,33.0919628 188.181562,33.1627021 188.264345,33.1685277 L188.542799,33.1885011 L188.821253,33.2076423 C188.903201,33.2143001 188.975114,33.1527154 188.980131,33.0711572 L189.110578,32.0575054 C189.116431,31.975115 189.055389,31.9043757 188.972605,31.8977179 L188.638962,31.8744156 L188.304483,31.850281 C188.221699,31.8436232 188.150622,31.905208 188.144769,31.9867662 L188.126373,33.0095724 Z M189.247714,33.0470226 C189.247714,33.1285808 189.31461,33.1951589 189.397393,33.1943267 L189.676684,33.1926622 L189.955974,33.19183 C190.038757,33.1909978 190.104817,33.1244197 190.103981,33.0420293 L190.155825,32.0217197 C190.154989,31.9393292 190.088093,31.8735834 190.005309,31.8735834 L189.67083,31.8752478 L189.335515,31.8769123 C189.251895,31.8785767 189.185835,31.9451548 189.185835,32.026713 L189.247714,33.0470226 Z" id="Rectangle-130"></path>
        </g>
    </g>
</svg>